<?xml version="1.0" encoding="UTF-8" standalone="no"?>
<svg
   xmlns:dc="http://purl.org/dc/elements/1.1/"
   xmlns:cc="http://creativecommons.org/ns#"
   xmlns:rdf="http://www.w3.org/1999/02/22-rdf-syntax-ns#"
   xmlns:svg="http://www.w3.org/2000/svg"
   xmlns="http://www.w3.org/2000/svg"
   xmlns:xlink="http://www.w3.org/1999/xlink"
   xmlns:sodipodi="http://sodipodi.sourceforge.net/DTD/sodipodi-0.dtd"
   xmlns:inkscape="http://www.inkscape.org/namespaces/inkscape"
   version="1.0"
   width="953.93518"
   height="789.79791"
   viewBox="0 0 9539.3518 7897.9789"
   preserveAspectRatio="xMidYMid meet"
   id="svg938"
   sodipodi:docname="yarc_logo_english.svg"
   inkscape:version="1.0 (4035a4f, 2020-05-01)">
  <metadata
     id="metadata944">
    <rdf:RDF>
      <cc:Work
         rdf:about="">
        <dc:format>image/svg+xml</dc:format>
        <dc:type
           rdf:resource="http://purl.org/dc/dcmitype/StillImage" />
        <dc:title></dc:title>
      </cc:Work>
    </rdf:RDF>
  </metadata>
  <defs
     id="defs942">
    <rect
       id="rect4493"
       height="1494.0074"
       width="5872.9946"
       y="6370.9971"
       x="-85.862495" />
    <rect
       x="63.44315"
       y="7406.9873"
       width="7184.9365"
       height="3045.271"
       id="rect4173" />
    <rect
       x="-631.87207"
       y="6127.9673"
       width="7320.1787"
       height="1263.7441"
       id="rect4157" />
    <linearGradient
       inkscape:collect="always"
       id="linearGradient1705">
      <stop
         style="stop-color:#000000;stop-opacity:1;"
         offset="0"
         id="stop1701" />
      <stop
         style="stop-color:#000000;stop-opacity:0;"
         offset="1"
         id="stop1703" />
    </linearGradient>
    <linearGradient
       inkscape:collect="always"
       xlink:href="#linearGradient1705"
       id="linearGradient1707"
       x1="1163.8567"
       y1="404.92535"
       x2="1507.8157"
       y2="404.92535"
       gradientUnits="userSpaceOnUse"
       gradientTransform="translate(1498.3005,-16.734401)" />
    <rect
       id="rect4165"
       height="1263.7441"
       width="7320.1787"
       y="6127.9673"
       x="-631.87207" />
    <rect
       x="-631.87207"
       y="6127.9673"
       width="7320.1787"
       height="1263.7441"
       id="rect4193" />
    <rect
       id="rect4195"
       height="3045.271"
       width="7184.9365"
       y="7406.9873"
       x="63.44315" />
  </defs>
  <sodipodi:namedview
     inkscape:pagecheckerboard="false"
     inkscape:snap-others="true"
     inkscape:snap-smooth-nodes="true"
     inkscape:object-paths="true"
     inkscape:object-nodes="true"
     inkscape:document-rotation="0"
     pagecolor="#092f3b"
     bordercolor="#666666"
     borderopacity="1"
     objecttolerance="10"
     gridtolerance="10"
     guidetolerance="10"
     inkscape:pageopacity="0"
     inkscape:pageshadow="2"
     inkscape:window-width="1440"
     inkscape:window-height="855"
     id="namedview940"
     showgrid="true"
     inkscape:zoom="0.57479755"
     inkscape:cx="357.71315"
     inkscape:cy="-57.674437"
     inkscape:window-x="0"
     inkscape:window-y="23"
     inkscape:window-maximized="0"
     inkscape:current-layer="svg938"
     inkscape:snap-intersection-paths="false"
     inkscape:snap-nodes="false"
     inkscape:snap-global="true"
     inkscape:snap-object-midpoints="true"
     fit-margin-top="8"
     fit-margin-left="0"
     fit-margin-right="0"
     fit-margin-bottom="8"
     inkscape:snap-grids="false">
    <inkscape:grid
       type="xygrid"
       id="grid1836"
       originx="1498.3005"
       originy="-16.734597" />
  </sodipodi:namedview>
  <ellipse
     style="opacity:0;fill:#7cff82;fill-opacity:1;stroke:url(#linearGradient1707);stroke-width:10"
     id="path1691"
     cx="2834.1367"
     cy="388.19086"
     rx="166.97952"
     ry="162.80502" />
  <circle
     style="opacity:0;fill:#471b35;fill-opacity:1;stroke:#f21212;stroke-width:10;stroke-opacity:1"
     id="path1709"
     cx="2704.6804"
     cy="-1350.4958"
     r="1000" />
  <text
     transform="translate(1570.1393)"
     style="font-style:normal;font-weight:normal;font-size:400px;line-height:1.25;font-family:sans-serif;white-space:pre;shape-inside:url(#rect4493);fill:#000000;fill-opacity:1;stroke:none;"
     id="text4491"
     xml:space="preserve" />
  <g
     transform="translate(1751.5434,-28.43)"
     id="g2567">
    <g
       id="g2546"
       transform="matrix(0.97790418,0,0,1,127.13196,0)">
      <path
         sodipodi:arc-type="slice"
         sodipodi:end="3.2409019"
         sodipodi:start="3.2420887"
         sodipodi:ry="330"
         sodipodi:rx="320"
         sodipodi:cy="1853.1482"
         sodipodi:cx="4410.8452"
         sodipodi:type="arc"
         id="path966"
         style="fill:#0b8dbd;fill-opacity:1;stroke:none;stroke-width:10"
         d="m 4092.4598,1820.0403 a 320,330 0 0 1 350.3956,-295.2369 320,330 0 0 1 286.3943,361.2579 320,330 0 0 1 -350.2257,295.4512 320,330 0 0 1 -286.6021,-361.0825 l 318.4233,32.7182 z" />
      <path
         sodipodi:arc-type="slice"
         sodipodi:end="3.2409019"
         sodipodi:start="3.2420887"
         sodipodi:ry="320"
         sodipodi:rx="320"
         sodipodi:cy="825.07562"
         sodipodi:cx="2961.2114"
         sodipodi:type="arc"
         id="path1793"
         style="fill:#fad10d;fill-opacity:1;stroke:none;stroke-width:10"
         d="m 2642.826,792.97099 a 320,320 0 0 1 350.3956,-286.29033 320,320 0 0 1 286.3943,350.31066 320,320 0 0 1 -350.2257,286.49818 320,320 0 0 1 -286.6021,-350.14063 l 318.4233,31.72675 z" />
      <path
         sodipodi:arc-type="slice"
         sodipodi:end="3.2409019"
         sodipodi:start="3.2420887"
         sodipodi:ry="320"
         sodipodi:rx="325"
         sodipodi:cy="1935.3303"
         sodipodi:cx="1348.9449"
         sodipodi:type="arc"
         id="path1834"
         style="fill:#e3290f;fill-opacity:1;stroke:none;stroke-width:10.0778"
         d="m 1025.5847,1903.2257 a 325,320 0 0 1 355.8706,-286.2903 325,320 0 0 1 290.8692,350.3106 325,320 0 0 1 -355.698,286.4982 325,320 0 0 1 -291.0802,-350.1406 l 323.3986,31.7267 z" />
      <g
         transform="translate(1.5724877e-7,40)"
         id="g2503">
        <path
           d="m 1851.0059,3024.4098 c -375,-270 -769.7616,-446.7657 -1664.76159,-459.7657 -181.000002,-3 -207.000002,-10 -174.000002,-47 43,-47 228.000002,-112 406.000002,-142 222,-37 349,-49 614.99999,-59 420,-14 523,-37 625,-139 68,-68 95,-148 94,-276 0,-81 -6,-115 -28,-179 -78,-229 -211,-432 -477,-726.99995 -60,-67 -117,-134.99999 -125,-149.99999 -14,-27 -13,-29 6,-29 56,0 325,178.99999 489,324.99994 188,166 437,440 581,640 52,72 97,132 101,135 3,3 30,40 58,83 99,147 226,409 307,634 101.3286,356.6144 201.4802,724.0628 231,1068 9.6816,66.4044 15.1627,149.4823 26.9416,178.9487 -310.9747,-145.5174 -740.5897,-614.0354 -1071.18,-856.183 z"
           id="path733"
           sodipodi:nodetypes="cccccsccccscccccccc"
           style="fill:#e3290f;stroke:none" />
        <path
           d="m 3780.9227,1386.5662 c 269,-294 568.0983,-523.30053 775.0983,-628.30053 62,-31 92,-38 92,-19 0,13 -33,61 -71,104 -15,17 -71,79.99998 -124,139.99998 -89.4102,95.26665 -178.0171,210.58805 -242,309.99995 -91.5012,133.6638 -169.7774,289.8928 -199,428 -50,248 55,426 287,482 37,9 154,20 279,25 504,23 613,34 810,76 229,49 396,126 361,167 -8,11 -72,15 -283,21 -1286.4174,-116.81 -1854.8098,1072.8098 -2492.9039,1387.5554 0.3181,-1.1158 0.5766,-2.2514 0.9538,-3.3511 237.1403,-691.3945 309.4673,-1866.2834 806.8518,-2489.9037 z"
           id="path754"
           sodipodi:nodetypes="ccsccccccccccsc"
           style="fill:#0b8dbd;stroke:none" />
        <g
           transform="translate(-16.788793,-62.924551)"
           stroke="none"
           fill="#fad10d"
           id="layer104">
          <path
             sodipodi:nodetypes="cc"
             id="path759"
             d="m 2915,3901 c -1958,-2602 -979,-1301 0,0 z" />
          <path
             sodipodi:nodetypes="ccccccccsccccc"
             id="path761"
             d="M 2343,1928 C 2292.7171,1631.8041 2240.3121,1329.6354 2195,1030 2108,468 2110.3617,136 2135.217,79.770931 2161.9275,4.3549807 2223.8886,204.21419 2234,245 c 15,65 53,200 93,335 97,323 255,551 445,644 95,47 163,59 242,45 175,-31 316,-156 574,-508 193,-264 536,-611 603,-611 34,0 -13,48 -61,173 -452,975 -902,2075 -1034.9594,3115.7195 -17.423,94.2806 -66.5921,336.2042 -90.2406,413.2154 -26.8203,66.6974 -47.2007,111.765 -60.801,86.469 C 2872.1614,3236.9309 2777.5787,2520.8613 2343,1928 Z" />
        </g>
      </g>
    </g>
    <g
       transform="translate(55.293092,-256.73435)"
       id="g1689">
      <g
         id="g1671"
         transform="matrix(1.0553671,0,0,1.0553671,-5.3600725,-161.34118)">
        <path
           d="m 96.809776,4674.1902 c 0,-1149 2,-1320 15.000004,-1324 28,-11 225,-30 232,-23 5,4 10,562 13,1239 5,1224 5,1232 25,1230 11,0 68.19022,-46.1902 182.97825,-54.9946 C 1347.7243,5595.953 2192.97,5350 2752.9379,5844.2382 1946.9717,5454.0421 840.19023,5947.8098 100,5990 c 0,-50 -3.190224,-266.8098 -3.190224,-1315.8098 z"
           id="path738"
           sodipodi:nodetypes="scccccccs"
           style="fill:#0b8dbd;stroke:none" />
        <path
           d="m 1373.2887,5455.1714 c -276,37 -431.80983,63.8145 -653.2887,104.8286 -50,10 -180,40 -204.19022,41.1902 -25.37765,-464.991 -17.93982,-923.5941 -18,-1320 -1,-838 3,-1339 9,-1343 5,-3 59,-11 120,-17 95,-10 113,-10 121,3 5,8 9,519 9,1242 0,675 2,1227 3,1227 C 1100,5232.7903 2050.4541,5148.6364 2752.9379,5705.3106 2297.9547,5459.9627 1800,5400 1373.2887,5455.1714 Z"
           id="path748"
           sodipodi:nodetypes="cccccccsccc"
           style="fill:#0b8dbd;stroke:none" />
        <path
           d="m 958.963,5160.8071 c -17,-1 -18,-56 -18,-1006 v -1005 c 78.9164,-0.5144 165.4826,-18.4725 219.037,-17.8058 l -9.037,961.8058 c -8.0331,854.9624 1,907 18,911 127.3061,-23.5887 1081.7287,-1.6329 1583.9749,559.1632 C 2218.5791,5250.8556 1515.0264,4995.3317 958.963,5160.8071 Z"
           id="path752"
           sodipodi:nodetypes="csccsccc"
           style="fill:#0b8dbd;stroke:none" />
      </g>
      <g
         transform="matrix(-1.0553671,0,0,1.0553671,5802.1699,-161.34118)"
         id="g1679">
        <path
           style="fill:#0b8dbd;stroke:none"
           sodipodi:nodetypes="scccccccs"
           id="path1673"
           d="m 96.809776,4674.1902 c 0,-1149 2,-1320 15.000004,-1324 28,-11 225,-30 232,-23 5,4 10,562 13,1239 5,1224 5,1232 25,1230 11,0 68.19022,-46.1902 182.97825,-54.9946 C 1347.7243,5595.953 2192.97,5350 2752.9379,5844.2382 1946.9717,5454.0421 840.19023,5947.8098 100,5990 c 0,-50 -3.190224,-266.8098 -3.190224,-1315.8098 z" />
        <path
           style="fill:#0b8dbd;stroke:none"
           sodipodi:nodetypes="cccccccsccc"
           id="path1675"
           d="m 1373.2887,5455.1714 c -276,37 -431.80983,63.8145 -653.2887,104.8286 -50,10 -180,40 -204.19022,41.1902 -25.37765,-464.991 -17.93982,-923.5941 -18,-1320 -1,-838 3,-1339 9,-1343 5,-3 59,-11 120,-17 95,-10 113,-10 121,3 5,8 9,519 9,1242 0,675 2,1227 3,1227 C 1100,5232.7903 2050.4541,5148.6364 2752.9379,5705.3106 2297.9547,5459.9627 1800,5400 1373.2887,5455.1714 Z" />
        <path
           style="fill:#0b8dbd;stroke:none"
           sodipodi:nodetypes="csccsccc"
           id="path1677"
           d="m 958.963,5160.8118 c -17,-1 -18,-56 -18,-1006 V 3149.8072 c 78.9164,-0.5144 165.4826,-21.3152 219.037,-20.6485 l -9.037,964.6485 c -8.0094,854.9626 1,907.0046 18,911.0046 127.3061,-23.5887 1081.7287,-1.6329 1583.9749,559.1632 C 2218.5791,5250.8603 1515.0264,4995.3364 958.963,5160.8118 Z" />
      </g>
    </g>
  </g>
  <text
     xml:space="preserve"
     style="font-style:normal;font-variant:normal;font-weight:normal;font-stretch:normal;font-size:1266.67px;line-height:1.25;font-family:Athene;-inkscape-font-specification:Athene;font-variant-ligatures:normal;font-variant-caps:normal;font-variant-numeric:normal;font-variant-east-asian:normal;fill:#ffffff;fill-opacity:1;stroke:none;stroke-width:10"
     x="-62.06683"
     y="7865.5137"
     id="text4507"><tspan
       sodipodi:role="line"
       x="-62.06683"
       y="7865.5137"
       style="font-style:normal;font-variant:normal;font-weight:normal;font-stretch:normal;font-size:1213.33px;font-family:Athene;-inkscape-font-specification:'Athene, Normal';font-variant-ligatures:normal;font-variant-caps:normal;font-variant-numeric:normal;font-variant-east-asian:normal;fill:#ffffff;fill-opacity:1;stroke-width:10"
       id="tspan4505">Resource Center</tspan></text>
  <g
     transform="translate(0,95.996571)"
     id="g343">
    <text
       xml:space="preserve"
       style="font-style:normal;font-variant:normal;font-weight:normal;font-stretch:normal;font-size:746.667px;line-height:1.25;font-family:Athene;-inkscape-font-specification:'Athene, Normal';font-variant-ligatures:normal;font-variant-caps:normal;font-variant-numeric:normal;font-variant-east-asian:normal;fill:#ffffff;fill-opacity:1;stroke:none;stroke-width:10"
       x="1516.8157"
       y="6584.377"
       id="text4499"><tspan
         sodipodi:role="line"
         x="1516.8157"
         y="6584.377"
         style="font-style:normal;font-variant:normal;font-weight:normal;font-stretch:normal;font-size:746.667px;font-family:Athene;-inkscape-font-specification:'Athene, Normal';font-variant-ligatures:normal;font-variant-caps:normal;font-variant-numeric:normal;font-variant-east-asian:normal;fill:#ffffff;fill-opacity:1;stroke-width:10"
         id="tspan4501">Yemeni American</tspan></text>
    <path
       style="fill:#ffffff;fill-opacity:1;stroke:#ffffff;stroke-width:21.1854;stroke-linecap:butt;stroke-linejoin:miter;stroke-miterlimit:4;stroke-dasharray:none;stroke-opacity:1"
       d="m 1657.7171,6643.7191 2469.4951,0.2446"
       id="path4565" />
    <path
       id="path301"
       d="m 4413.8057,6647.4081 3473.9989,0.1776"
       style="fill:#ffffff;fill-opacity:1;stroke:#ffffff;stroke-width:21.2566;stroke-linecap:butt;stroke-linejoin:miter;stroke-miterlimit:4;stroke-dasharray:none;stroke-opacity:1" />
    <path
       style="fill:#ffffff;fill-opacity:1;stroke:#ffffff;stroke-width:32.3086;stroke-linecap:butt;stroke-linejoin:miter;stroke-miterlimit:4;stroke-dasharray:none;stroke-opacity:1"
       d="m 4209.5757,6372.4026 199.564,7.1403"
       id="path303" />
  </g>
</svg>
